<svg width="32" height="32" viewBox="0 0 32 32" fill="none" xmlns="http://www.w3.org/2000/svg">
<path d="M30.2 19.1867L16 29.5067L1.8 19.1867C1.60964 19.0467 1.46843 18.85 1.39658 18.6249C1.32473 18.3998 1.32593 18.1577 1.4 17.9333L3.02667 12.8933L6.28 2.88001C6.31156 2.79842 6.36179 2.72536 6.42667 2.66668C6.53232 2.57017 6.67024 2.51666 6.81334 2.51666C6.95643 2.51666 7.09435 2.57017 7.2 2.66668C7.26851 2.7329 7.31899 2.8155 7.34667 2.90668L10.6 12.8933H21.4L24.6533 2.88001C24.6849 2.79842 24.7351 2.72536 24.8 2.66668C24.9057 2.57017 25.0436 2.51666 25.1867 2.51666C25.3298 2.51666 25.4677 2.57017 25.5733 2.66668C25.6418 2.7329 25.6923 2.8155 25.72 2.90668L28.9733 12.92L30.6667 17.9333C30.734 18.1647 30.725 18.4115 30.6409 18.6373C30.5569 18.8631 30.4022 19.0557 30.2 19.1867V19.1867Z" stroke="white" stroke-width="2" stroke-linecap="round" stroke-linejoin="round"/>
</svg>
